<svg id="logo" xmlns="http://www.w3.org/2000/svg" width="132.938" height="47.125" viewBox="0 0 132.938 47.125">
  <metadata><?xpacket begin="﻿" id="W5M0MpCehiHzreSzNTczkc9d"?>
<x:xmpmeta xmlns:x="adobe:ns:meta/" x:xmptk="Adobe XMP Core 5.6-c142 79.160924, 2017/07/13-01:06:39        ">
   <rdf:RDF xmlns:rdf="http://www.w3.org/1999/02/22-rdf-syntax-ns#">
      <rdf:Description rdf:about=""/>
   </rdf:RDF>
</x:xmpmeta>
                                                                                                    
                                                                                                    
                                                                                                    
                                                                                                    
                                                                                                    
                                                                                                    
                                                                                                    
                                                                                                    
                                                                                                    
                                                                                                    
                                                                                                    
                                                                                                    
                                                                                                    
                                                                                                    
                                                                                                    
                                                                                                    
                                                                                                    
                                                                                                    
                                                                                                    
                                                                                                    
                           
<?xpacket end="w"?></metadata>
<defs>
    <style>
      .cls-1 {
        font-size: 9px;
        font-family: Poppins;
      }

      .cls-1, .cls-2 {
        fill: #fff;
      }

      .cls-2 {
        fill-rule: evenodd;
      }
    </style>
  </defs>
  <text id="Photographer" class="cls-1" x="26" y="44.625">Photographer</text>
  <path id="logotype" class="cls-2" d="M62.508,91.594a5.06,5.06,0,0,0,4.142,1.862,9.824,9.824,0,0,0,4.826-1.216,16.644,16.644,0,0,0,1.71-1.14A6.184,6.184,0,0,0,74.4,90L73.49,88.782l-0.57.456a7.407,7.407,0,0,1-1.6.912,4.788,4.788,0,0,1-1.938.456q-2.66,0-2.926-3.572l0.912-.114a17.22,17.22,0,0,0,4.94-1.672,6.5,6.5,0,0,0,2.261-1.938,5.052,5.052,0,0,0,.931-3.1,3.519,3.519,0,0,0-1.444-2.945,5.906,5.906,0,0,0-3.686-1.1,9.161,9.161,0,0,0-6.517,2.755,9.915,9.915,0,0,0-2.869,7.5A7.949,7.949,0,0,0,62.508,91.594Zm3.914-6.422a15.158,15.158,0,0,1,.779-4.579q0.778-2.451,2.223-2.451,1.216,0,1.216,2.052a4.866,4.866,0,0,1-1.14,3.344,5.147,5.147,0,0,1-3.078,1.634h0Zm15.484,7.277a3.187,3.187,0,0,0,1.007-2.318,2.956,2.956,0,0,0-.722-2.09,2.686,2.686,0,0,0-2.071-.779,3.224,3.224,0,0,0-2.337.969,3.11,3.11,0,0,0-.988,2.3,3.048,3.048,0,0,0,.722,2.128,2.624,2.624,0,0,0,2.052.8A3.209,3.209,0,0,0,81.906,92.449Zm29.507-11.3a10.232,10.232,0,0,1-3.952,1.178,23.553,23.553,0,0,0,1.026-6.194,12.084,12.084,0,0,0-1.634-6.593,5.113,5.113,0,0,0-4.541-2.565,5.983,5.983,0,0,0-4.959,2.869A10.839,10.839,0,0,0,95.3,76.3a8.727,8.727,0,0,0,1.6,5.586,7.225,7.225,0,0,0,4.56,2.527q-1.71,6.461-5.472,6.46a3.06,3.06,0,0,1-2.2-.836q-1.9-1.71-1.9-7.942,0-9.576,4.1-14.706l-0.8-1.33A17.076,17.076,0,0,0,88.233,72.8,19.08,19.08,0,0,0,85.8,82.341q0,5.225,2.3,8.17a7.952,7.952,0,0,0,6.669,2.945,11.28,11.28,0,0,0,7.315-2.375,15.941,15.941,0,0,0,4.617-6.289,14.576,14.576,0,0,0,3.344-.684,12.946,12.946,0,0,0,2.66-1.1,8.877,8.877,0,0,0-.57-2.242Zm-9.538.836A4.3,4.3,0,0,1,98.759,80.4a6.046,6.046,0,0,1-1.1-3.857,8.254,8.254,0,0,1,.969-4.161q0.969-1.69,2.109-1.691a1.429,1.429,0,0,1,1.444,1.311,19.468,19.468,0,0,1,.3,4.028,32.352,32.352,0,0,1-.608,5.947h0Zm13.965,10.6a16.161,16.161,0,0,0,3.134-1.9l-0.684-1.33-2.66.95q-0.342,0-.342-1.425a87.468,87.468,0,0,1,1.919-10.146q1.919-8.721,1.919-11.761a3.353,3.353,0,0,0-.38-1.862,17.012,17.012,0,0,0-5.548,1.026l0.229,1.672a64.822,64.822,0,0,1-1.882,12.255,79.887,79.887,0,0,0-1.881,10.07,3.356,3.356,0,0,0,.855,2.451,2.906,2.906,0,0,0,2.167.874A7.65,7.65,0,0,0,115.84,92.582Zm11.38-16.226a26.521,26.521,0,0,0-6.536.57l-0.038.494,0.342,0.456a5.124,5.124,0,0,1,.988,3,23.978,23.978,0,0,1-.95,4.617,22.981,22.981,0,0,0-.95,4.94,3.1,3.1,0,0,0,.76,2.2,2.714,2.714,0,0,0,2.09.817,6.516,6.516,0,0,0,2.888-.779,13.367,13.367,0,0,0,2.128-1.235q0.57-.456.912-0.76l-0.646-1.33-0.456.228A8.739,8.739,0,0,1,126,90.3q-0.342,0-.342-1.2a26.458,26.458,0,0,1,1.026-5.092,25.417,25.417,0,0,0,1.026-5.491,3.435,3.435,0,0,0-.494-2.166h0Zm-1.748-3.42a3.569,3.569,0,0,0,2.413-.95,2.842,2.842,0,0,0,1.083-2.185,2.7,2.7,0,0,0-.76-2,2.879,2.879,0,0,0-2.128-.76,3.482,3.482,0,0,0-2.413.95,2.9,2.9,0,0,0-1.045,2.2,2.656,2.656,0,0,0,.76,1.995A2.865,2.865,0,0,0,125.472,72.936Zm4.712,3.914-0.114.456a6.236,6.236,0,0,1,.893,1.33,3.241,3.241,0,0,1,.437,1.444q0,2.7-.247,5.434t-0.247,4.351a3.837,3.837,0,0,0,.855,2.6,3.066,3.066,0,0,0,2.451.988,7.345,7.345,0,0,0,5.016-2.337,17.451,17.451,0,0,0,3.952-5.681,15.679,15.679,0,0,0,1.482-6.346,2.875,2.875,0,0,0-.836-2.052,3.265,3.265,0,0,0-2.47-.874l-0.532.494a6.512,6.512,0,0,0-1.216,1.862,8.527,8.527,0,0,0-.8,2.964l2.584,2.888a6.913,6.913,0,0,1-1.805,3.591q-1.729,2.147-3.173,2.147-0.609,0-.608-1.52a34.923,34.923,0,0,1,.684-4.275,31.164,31.164,0,0,0,.684-4.655q0-2.127-.817-2.812a3.781,3.781,0,0,0-2.47-.684,11.842,11.842,0,0,0-3.705.684h0Zm16.34,14.744a5.06,5.06,0,0,0,4.142,1.862,9.825,9.825,0,0,0,4.826-1.216,16.643,16.643,0,0,0,1.71-1.14,6.213,6.213,0,0,0,1.216-1.1l-0.912-1.216-0.57.456a7.409,7.409,0,0,1-1.6.912,4.789,4.789,0,0,1-1.938.456q-2.661,0-2.926-3.572l0.912-.114a17.225,17.225,0,0,0,4.94-1.672,6.509,6.509,0,0,0,2.261-1.938,5.055,5.055,0,0,0,.931-3.1,3.52,3.52,0,0,0-1.444-2.945,5.907,5.907,0,0,0-3.686-1.1,9.16,9.16,0,0,0-6.517,2.755,9.915,9.915,0,0,0-2.869,7.5A7.947,7.947,0,0,0,146.524,91.594Zm3.914-6.422a15.146,15.146,0,0,1,.779-4.579q0.777-2.451,2.223-2.451,1.215,0,1.216,2.052a4.866,4.866,0,0,1-1.14,3.344,5.146,5.146,0,0,1-3.078,1.634h0Zm15.921,7.41q-0.037-.342-0.038-1.178a62.822,62.822,0,0,1,1.748-10.184,4.119,4.119,0,0,1,1.672-1.14,1.886,1.886,0,0,1,.912,1.026,8.755,8.755,0,0,0,.646,1.026,4.841,4.841,0,0,0,1.881-.8,7.437,7.437,0,0,0,1.292-1.007q0.323-.361.513-0.589,0-3.571-2.052-3.572a4.182,4.182,0,0,0-2.736,1.14,9.018,9.018,0,0,0-1.748,1.824,6.785,6.785,0,0,0-.456-2.774,27.018,27.018,0,0,0-6.574.57l-0.038.494,0.342,0.456a4.417,4.417,0,0,1,1.064,2.584,51.66,51.66,0,0,1-1.026,5.434,42.02,42.02,0,0,0-1.026,5.833,7.5,7.5,0,0,0,.076,1.387h0.266a16.857,16.857,0,0,0,5.282-.532h0Zm23.522-17.85s11.184-6.583-3.618-12.7c-10.441-4.312-36.735,4.8-40.456,5.73a44.772,44.772,0,0,1-9.88,1.108,5.1,5.1,0,0,1-3.263-.674s-0.176,4.059,10.734,3.7c8.7-.288,23.063-5.719,35.344-4.328C187.22,68.529,189.881,74.731,189.881,74.731Z" transform="translate(-61 -60.875)"/>
</svg>
