<svg xmlns="http://www.w3.org/2000/svg" xmlns:xlink="http://www.w3.org/1999/xlink" width="318.32" height="425.77" viewBox="0 0 318.32 425.77"><defs><linearGradient id="9ab6bb07-1459-4281-8286-eada86e2d463" x1="24.33" y1="153.1" x2="294.09" y2="153.1" gradientUnits="userSpaceOnUse"><stop offset="0" stop-color="#06acf3"/><stop offset="1" stop-color="#ef0fee"/></linearGradient></defs><title>logo-photo</title><g id="c94d8dac-a44e-4667-aee4-7dd7550ed7b2" data-name="Capa 2"><g id="df139fd5-ed06-43ed-b63e-6ff148953c96" data-name="Capa 1"><path d="M272.45,189V114.49a27,27,0,1,0-26.61-43L184.4,35.65a27,27,0,1,0-51.05.11L72.46,71.32A27,27,0,1,0,46,114.49V189a27,27,0,1,0,25.2,44.69l62.27,36.49a27,27,0,1,0,51,.55l62.84-37A27,27,0,1,0,272.45,189ZM138.75,45A27,27,0,0,0,179,44.86l62,36.18a26.95,26.95,0,0,0,1.15,17.4l-83,48.48-83-48.62a27,27,0,0,0,1-17.46Zm-62,179.58A27,27,0,0,0,56.64,189V114.49a27,27,0,0,0,13.69-7.31l83.56,49v96.56A27,27,0,0,0,139,261Zm102.45,36.92a27,27,0,0,0-14.61-8.6V156.16l83.67-48.88a26.93,26.93,0,0,0,13.58,7.21V189a27,27,0,0,0-20,35.62Z" style="fill:url(#9ab6bb07-1459-4281-8286-eada86e2d463)"/><path d="M32.89,363.34v4.53c0,11.45-6.38,17.07-15.88,17.07-9.23,0-17-4.59-17-19.39s7.78-19.49,17-19.49c7.13,0,12.85,3,15.39,10.91l-7,2.21c-1.4-4.91-4.48-6.7-8.37-6.7-5.08,0-9.4,2.81-9.4,13.07s4.32,13,9.4,13c4.48,0,7.67-1.73,8.16-8.75H15v-6.42Z" style="fill:#393e46"/><path d="M52.92,364.47a9.62,9.62,0,0,0-3-.54c-3.35,0-3.89,2.59-3.89,6.54V384.4H38.45v-27h7.61v2.54a5.81,5.81,0,0,1,5.19-3.08,8.82,8.82,0,0,1,3,.54Z" style="fill:#393e46"/><path d="M71.44,384.4a9.89,9.89,0,0,1-.54-2.65,9.26,9.26,0,0,1-7.13,3.19c-5.78,0-9-3.08-9-8.7,0-6.53,5.13-8.15,11.23-8.15a34.2,34.2,0,0,1,4.86.38v-2c0-2.21-1.4-3.19-3.46-3.19a3,3,0,0,0-3.18,2.38l-8.26-1c.86-4.92,5.67-7.83,11.5-7.83,6,0,11,3,11,9.34v8.64a59.31,59.31,0,0,0,.6,9.56Zm-3.89-11c-3.08,0-5.13.65-5.13,2.92,0,1.51,1.14,2.21,2.86,2.21,3,0,5.62-2.1,5.62-5.13Z" style="fill:#393e46"/><path d="M84.88,395.2V357.4H92.5v2.86a9,9,0,0,1,7.4-3.4c6,0,10.53,4.32,10.53,13.55,0,9.78-4.54,14.53-11.56,14.53a8.76,8.76,0,0,1-6.37-2.65V395.2Zm7.62-19.44c1.56,1.78,3,2.75,5.08,2.75,3.18,0,5.23-3,5.23-8.1,0-4.86-1.94-7.13-4.75-7.13-3.13,0-5.56,3.14-5.56,9.13Z" style="fill:#393e46"/><path d="M123.66,384.4H116V345h7.62v15a9.64,9.64,0,0,1,7.5-3.08c5.4,0,8.59,3.29,8.59,10.2V384.4h-7.62V367.23c0-2.76-1.51-4-3.78-4-2.8,0-4.69,2.38-4.69,8.48Z" style="fill:#393e46"/><path d="M175.71,384.94a28.36,28.36,0,0,1-13.93-3.67l3-6.11c4,2.6,6.53,3.35,10.91,3.35,3.83,0,6.64-1.24,6.64-4.91,0-8.1-19.55-1.24-19.55-17.39,0-7,5.88-10.15,13.17-10.15a29.38,29.38,0,0,1,13.13,3l-2.54,6.05a22.76,22.76,0,0,0-10.59-2.6c-3.13,0-5.56,1.19-5.56,3.73,0,9.18,19.55,1.62,19.55,17.17C189.91,382.13,183.54,384.94,175.71,384.94Z" style="fill:#393e46"/><path d="M193.2,363.82V357.4h3.62v-8.64h7.62v8.64h6.69v6.42h-6.69v10.64c0,3,.91,4.05,2.8,4.05a6.47,6.47,0,0,0,3.35-1.08l1.57,6.1a16.37,16.37,0,0,1-6.32,1.41c-5.62,0-9-2.76-9-10.05V363.82Z" style="fill:#393e46"/><path d="M225.17,384.94c-5.78,0-9.29-3-9.29-10.26V357.4h7.62v17c0,2.87,1.46,4.16,3.56,4.16,3,0,4.91-2.91,4.91-8V357.4h7.62v17.17a71.07,71.07,0,0,0,.59,9.83h-7.56a9.51,9.51,0,0,1-.65-3A7.8,7.8,0,0,1,225.17,384.94Z" style="fill:#393e46"/><path d="M263.51,381.21a10.2,10.2,0,0,1-7.72,3.73c-5.94,0-10.59-4.27-10.59-13.66,0-9.62,4.54-14.42,11.45-14.42a8.49,8.49,0,0,1,6.48,3V345h7.62v29.59a71.07,71.07,0,0,0,.59,9.83h-6.75A16.89,16.89,0,0,1,263.51,381.21Zm-.38-11.82v-2.87c-1.46-2.1-2.81-3.24-5.13-3.24-3.08,0-5.18,3-5.18,8s2,7.23,4.8,7.23C260.75,378.51,263.13,375.38,263.13,369.39Z" style="fill:#393e46"/><path d="M278.25,363.82h-3.13V357.4h7.18c2.7,0,3.56.43,3.56,3v24h-7.61Zm.16-17.22h7.35v7.13h-7.35Z" style="fill:#393e46"/><path d="M291.48,370.9c0-8.43,4.48-14,13.44-14s13.4,5.61,13.4,14-4.43,14-13.4,14S291.48,379.32,291.48,370.9Zm7.61,0c0,4.64,1.89,7.61,5.83,7.61s5.78-3,5.78-7.61-1.83-7.62-5.78-7.62S299.09,366.25,299.09,370.9Z" style="fill:#393e46"/><text transform="translate(0.21 421.11)" style="font-size:16.971010208129883px;fill:#a5a5a5;font-family:Nunito-Regular, Nunito;letter-spacing:0.08901898997010126em">C<tspan x="13" y="0" style="letter-spacing:0.09998092764903098em">ON</tspan><tspan x="41.9" y="0" style="letter-spacing:0.09598169054306974em">E</tspan><tspan x="53.41" y="0" style="letter-spacing:0.08999722062911335em">C</tspan><tspan x="66.42" y="0" style="letter-spacing:0.10000969913900193em">TING THE D</tspan><tspan x="176.9" y="0" style="letter-spacing:0.055989319483457346em">O</tspan><tspan x="190.82" y="0" style="letter-spacing:0.07601427650323449em">T</tspan><tspan x="202.26" y="0" style="letter-spacing:0.10000969913900193em">S </tspan><tspan x="220.5" y="0" style="letter-spacing:0.055989319483457346em">Y</tspan><tspan x="231.65" y="0" style="letter-spacing:0.10000969913900193em">OU NEED</tspan></text></g></g></svg>